<?xml version="1.0" encoding="UTF-8" standalone="no"?>
<!-- Created with Inkscape (http://www.inkscape.org/) -->

<svg
   xmlns:dc="http://purl.org/dc/elements/1.1/"
   xmlns:cc="http://creativecommons.org/ns#"
   xmlns:rdf="http://www.w3.org/1999/02/22-rdf-syntax-ns#"
   xmlns:svg="http://www.w3.org/2000/svg"
   xmlns="http://www.w3.org/2000/svg"
   xmlns:sodipodi="http://sodipodi.sourceforge.net/DTD/sodipodi-0.dtd"
   xmlns:inkscape="http://www.inkscape.org/namespaces/inkscape"
   id="svg2"
   height="34.483059mm"
   width="39.542816mm"
   version="1.1"
   viewBox="0 0 140.11115 122.18234"
   inkscape:version="0.91 r13725"
   sodipodi:docname="icon.svg"
   inkscape:export-filename="/home/sturm/git/vscode-fix-json/images/icon.png"
   inkscape:export-xdpi="86.599998"
   inkscape:export-ydpi="86.599998">
  <defs
     id="defs4153">
    <inkscape:path-effect
       effect="spiro"
       id="path-effect4171"
       is_visible="true" />
  </defs>
  <sodipodi:namedview
     pagecolor="#ffffff"
     bordercolor="#666666"
     borderopacity="1"
     objecttolerance="10"
     gridtolerance="10"
     guidetolerance="10"
     inkscape:pageopacity="0"
     inkscape:pageshadow="2"
     inkscape:window-width="3836"
     inkscape:window-height="2097"
     id="namedview4151"
     showgrid="false"
     fit-margin-top="1"
     fit-margin-right="1"
     fit-margin-bottom="1"
     fit-margin-left="1"
     inkscape:zoom="12.427999"
     inkscape:cx="71.107018"
     inkscape:cy="65.525656"
     inkscape:window-x="3840"
     inkscape:window-y="30"
     inkscape:window-maximized="0"
     inkscape:current-layer="layer3" />
  <metadata
     id="metadata7">
    <rdf:RDF>
      <cc:Work
         rdf:about="">
        <dc:format>image/svg+xml</dc:format>
        <dc:type
           rdf:resource="http://purl.org/dc/dcmitype/StillImage" />
        <dc:title></dc:title>
      </cc:Work>
    </rdf:RDF>
  </metadata>
  <g
     inkscape:groupmode="layer"
     id="layer2"
     inkscape:label="Layer 1"
     style="display:inline">
    <path
       style="fill:#ff7f0f;fill-opacity:1;fill-rule:evenodd;stroke:#000000;stroke-width:1px;stroke-linecap:butt;stroke-linejoin:miter;stroke-opacity:1"
       d="M 133.93482,19.949758 107.94534,50.686544 136.02685,66.457251 129.67029,113.44752 66.587469,96.791718 8.9761091,117.95343 4.0678791,79.170373 33.758649,45.858776 17.907479,17.374949 73.748658,4.0583563 133.93482,19.949758 Z"
       id="path4169"
       inkscape:path-effect="#path-effect4171"
       inkscape:original-d="M 133.93482,19.949758 107.94534,50.686544 136.02685,66.457251 129.67029,113.44752 66.587469,96.791718 8.9761091,117.95343 4.0678791,79.170373 C 7.1639501,48.047601 33.465811,61.959244 33.758649,45.858776 L 17.907479,17.374949 73.748658,4.0583563 Z"
       inkscape:connector-curvature="0"
       sodipodi:nodetypes="ccccccccccc" />
  </g>
  <g
     inkscape:groupmode="layer"
     id="layer3"
     inkscape:label="Layer 2">
    <g
       style=""
       id="layer1"
       transform="translate(-104.02653,-126.75095)">
      <g
         id="flowRoot4136">
        <path
           id="path4189"
           d="m 158.91,168.7 -7.7539,0 0,-28.125 20.195,0 0,3.5938 -12.441,0 0,8.6914 9.6094,0 0,3.5742 -9.6094,0 0,12.266 z"
           inkscape:connector-curvature="0" />
        <path
           id="path4191"
           d="m 181.56,140.7 q 0,0.74219 -0.29297,1.4062 -0.27344,0.66406 -0.76172,1.1523 -0.48828,0.48828 -1.1523,0.78125 -0.66406,0.27344 -1.4062,0.27344 -0.74219,0 -1.4062,-0.27344 -0.64453,-0.29297 -1.1328,-0.78125 -0.48829,-0.48828 -0.78125,-1.1523 -0.27344,-0.66406 -0.27344,-1.4062 0,-0.74219 0.27344,-1.3867 0.29296,-0.66406 0.78125,-1.1523 0.48828,-0.48828 1.1328,-0.76172 0.66406,-0.29297 1.4062,-0.29297 0.74219,0 1.4062,0.29297 0.66406,0.27344 1.1523,0.76172 0.48828,0.48828 0.76172,1.1523 0.29297,0.64453 0.29297,1.3867 z m -0.29297,28.008 -6.6211,0 0,-22.539 6.6211,0 0,22.539 z"
           inkscape:connector-curvature="0" />
        <path
           id="path4193"
           d="m 206.76,168.7 -6.6016,0 -5.5273,-7.9102 -5.6445,7.9102 -4.5703,0 8.4961,-10.391 -8.4961,-12.168 6.6016,0 5.3516,7.6562 5.8203,-7.6562 4.5703,0 -8.6719,10.117 8.6719,12.441 z"
           inkscape:connector-curvature="0" />
        <path
           id="path4195"
           d="m 134.39,209.88 q 0,2.7148 -0.70312,5.5273 -0.6836,2.793 -1.9336,5.4102 -1.2305,2.6367 -2.9688,4.9219 -1.7383,2.2852 -3.8281,3.9844 l -3.0078,-1.8164 q 1.1719,-1.6016 2.0508,-3.6328 0.8789,-2.0312 1.4648,-4.2188 0.58594,-2.1875 0.87891,-4.3945 0.29297,-2.207 0.29297,-4.1992 l 0,-20.879 7.7539,0 0,19.297 z"
           inkscape:connector-curvature="0" />
        <path
           id="path4197"
           d="m 163.65,210.11 q 0,1.8164 -0.46875,3.2031 -0.44922,1.3867 -1.2891,2.4023 -0.82031,1.0156 -1.9531,1.6992 -1.1328,0.68359 -2.4805,1.0938 -1.3281,0.41016 -2.832,0.58594 -1.4844,0.17578 -3.0274,0.17578 -2.0312,0 -3.75,-0.3125 -1.7188,-0.29297 -3.2422,-0.9375 -1.5039,-0.66406 -2.9102,-1.6992 -1.3867,-1.0352 -2.7734,-2.5195 l 3.9844,-4.043 q 0.54687,1.3477 1.5039,2.5 0.95703,1.1328 2.0898,1.9531 1.1523,0.82032 2.3828,1.2891 1.2305,0.46875 2.3242,0.46875 1.2891,0 2.4219,-0.17578 1.1328,-0.19532 1.9727,-0.625 0.83984,-0.42969 1.3086,-1.1328 0.48828,-0.72265 0.48828,-1.7969 0,-0.82031 -0.37109,-1.4062 -0.37109,-0.58594 -0.97656,-0.9961 -0.58594,-0.42968 -1.3477,-0.72265 -0.76172,-0.29297 -1.5625,-0.48828 -0.78125,-0.21485 -1.543,-0.3711 -0.76172,-0.17578 -1.3476,-0.35156 -1.1524,-0.33203 -2.4024,-0.70312 -1.25,-0.39063 -2.4609,-0.87891 -1.2109,-0.48828 -2.3047,-1.1133 -1.0742,-0.64453 -1.8945,-1.5039 -0.82032,-0.8789 -1.3086,-2.0117 -0.48828,-1.1523 -0.48828,-2.6367 0,-1.7773 0.42969,-3.1445 0.44922,-1.3867 1.25,-2.4023 0.80078,-1.0156 1.8945,-1.6992 1.0938,-0.70312 2.4023,-1.1133 1.3086,-0.42969 2.7734,-0.60547 1.4844,-0.19531 3.0273,-0.19531 2.1094,0 3.8281,0.39062 1.7383,0.39063 3.2031,1.1133 1.4648,0.72266 2.6758,1.7383 1.2305,0.99609 2.3047,2.2266 l -3.9844,4.043 q -0.46875,-1.4062 -1.3086,-2.5391 -0.82031,-1.1328 -1.8359,-1.9336 -1.0156,-0.82031 -2.1289,-1.25 -1.1133,-0.44922 -2.1484,-0.44922 -1.3476,0 -2.4805,0.19531 -1.1328,0.17579 -1.9531,0.60547 -0.80078,0.41016 -1.25,1.1328 -0.44922,0.70312 -0.44922,1.7578 0,0.83984 0.33203,1.4258 0.33203,0.58594 0.87891,0.99609 0.5664,0.41016 1.2695,0.6836 0.70312,0.2539 1.4453,0.44922 0.76172,0.19531 1.4844,0.35156 0.74218,0.13672 1.3476,0.3125 1.1719,0.33203 2.4609,0.70312 1.2891,0.3711 2.5391,0.87891 1.25,0.48828 2.3828,1.1328 1.1328,0.64453 1.9922,1.543 0.85938,0.87891 1.3672,2.0508 0.50781,1.1524 0.50781,2.6562 z"
           inkscape:connector-curvature="0" />
        <path
           id="path4199"
           d="m 197.85,204.6 q 0,3.3984 -1.1719,6.1328 -1.1719,2.7148 -3.2422,4.6094 -2.0703,1.8945 -4.9023,2.9102 -2.832,1.0156 -6.1328,1.0156 -3.3008,0 -6.1328,-1.0156 -2.832,-1.0156 -4.9023,-2.9102 -2.0703,-1.8945 -3.2422,-4.6094 -1.1719,-2.7344 -1.1719,-6.1328 0,-3.457 1.1524,-6.1719 1.1719,-2.7344 3.2226,-4.6094 2.0703,-1.8945 4.9024,-2.8906 2.832,-1.0156 6.1719,-1.0156 3.3398,0 6.1719,1.0156 2.832,0.9961 4.8828,2.8906 2.0703,1.875 3.2227,4.6094 1.1719,2.7148 1.1719,6.1719 z m -7.8906,0 q 0,-1.2891 -0.11719,-2.6367 -0.11719,-1.3477 -0.42969,-2.6172 -0.3125,-1.2695 -0.85937,-2.3828 -0.52735,-1.1133 -1.3672,-1.9336 -0.83984,-0.83985 -2.0312,-1.3086 -1.1719,-0.48828 -2.7539,-0.48828 -1.6016,0 -2.793,0.48828 -1.1914,0.46875 -2.0312,1.2891 -0.83984,0.82031 -1.3672,1.9336 -0.52735,1.1133 -0.83985,2.3828 -0.29297,1.25 -0.41015,2.6172 -0.11719,1.3477 -0.11719,2.6562 0,1.2891 0.11719,2.6367 0.11718,1.3476 0.42968,2.6172 0.3125,1.25 0.83985,2.3633 0.54687,1.1133 1.3867,1.9531 0.83984,0.82031 2.0117,1.3086 1.1914,0.48828 2.7734,0.48828 1.543,0 2.6953,-0.48828 1.1523,-0.50782 1.9922,-1.3477 0.83985,-0.85938 1.3867,-1.9727 0.56641,-1.1328 0.87891,-2.3828 0.33203,-1.2695 0.46875,-2.5977 0.13672,-1.3281 0.13672,-2.5781 z"
           inkscape:connector-curvature="0" />
        <path
           id="path4201"
           d="m 206.31,218.7 -3.5938,0 0,-28.125 5.0391,0 17.09,19.316 0,-19.316 3.5742,0 0,28.125 -5.0391,0 -17.07,-19.297 0,19.297 z"
           inkscape:connector-curvature="0" />
      </g>
      <flowRoot
         id="flowRoot4155"
         font-size="40px"
         xml:space="preserve"
         style="font-size:40px;line-height:125%;font-family:sans-serif;letter-spacing:0px;word-spacing:0px;fill:#000000"
         line-height="125%"><flowRegion
           id="flowRegion4157"><rect
             id="rect4159"
             y="333.35999"
             width="336"
             x="210"
             height="229" /></flowRegion><flowPara
           id="flowPara4161" /></flowRoot>    </g>
  </g>
</svg>
