<?xml version="1.0" encoding="UTF-8" standalone="no"?>
<!-- Created with Inkscape (http://www.inkscape.org/) -->
<svg id="svg2" xmlns:rdf="http://www.w3.org/1999/02/22-rdf-syntax-ns#" xmlns="http://www.w3.org/2000/svg" height="26.139mm" width="30.047mm" version="1.1" xmlns:cc="http://creativecommons.org/ns#" xmlns:dc="http://purl.org/dc/elements/1.1/" viewBox="0 0 106.46484 92.617192">
 <metadata id="metadata7">
  <rdf:RDF>
   <cc:Work rdf:about="">
    <dc:format>image/svg+xml</dc:format>
    <dc:type rdf:resource="http://purl.org/dc/dcmitype/StillImage"/>
    <dc:title/>
   </cc:Work>
  </rdf:RDF>
 </metadata>
 <g id="layer1" transform="translate(-121.95 -137.1)">
  <g id="flowRoot4136">
   <path id="path4189" d="m158.91 168.7h-7.7539v-28.125h20.195v3.5938h-12.441v8.6914h9.6094v3.5742h-9.6094v12.266z"/>
   <path id="path4191" d="m181.56 140.7q0 0.74219-0.29297 1.4062-0.27344 0.66406-0.76172 1.1523-0.48828 0.48828-1.1523 0.78125-0.66406 0.27344-1.4062 0.27344-0.74219 0-1.4062-0.27344-0.64453-0.29297-1.1328-0.78125-0.48829-0.48828-0.78125-1.1523-0.27344-0.66406-0.27344-1.4062 0-0.74219 0.27344-1.3867 0.29296-0.66406 0.78125-1.1523 0.48828-0.48828 1.1328-0.76172 0.66406-0.29297 1.4062-0.29297 0.74219 0 1.4062 0.29297 0.66406 0.27344 1.1523 0.76172 0.48828 0.48828 0.76172 1.1523 0.29297 0.64453 0.29297 1.3867zm-0.29297 28.008h-6.6211v-22.539h6.6211v22.539z"/>
   <path id="path4193" d="m206.76 168.7h-6.6016l-5.5273-7.9102-5.6445 7.9102h-4.5703l8.4961-10.391-8.4961-12.168h6.6016l5.3516 7.6562 5.8203-7.6562h4.5703l-8.6719 10.117 8.6719 12.441z"/>
   <path id="path4195" d="m134.39 209.88q0 2.7148-0.70312 5.5273-0.6836 2.793-1.9336 5.4102-1.2305 2.6367-2.9688 4.9219t-3.8281 3.9844l-3.0078-1.8164q1.1719-1.6016 2.0508-3.6328t1.4648-4.2188q0.58594-2.1875 0.87891-4.3945t0.29297-4.1992v-20.879h7.7539v19.297z"/>
   <path id="path4197" d="m163.65 210.11q0 1.8164-0.46875 3.2031-0.44922 1.3867-1.2891 2.4023-0.82031 1.0156-1.9531 1.6992-1.1328 0.68359-2.4805 1.0938-1.3281 0.41016-2.832 0.58594-1.4844 0.17578-3.0274 0.17578-2.0312 0-3.75-0.3125-1.7188-0.29297-3.2422-0.9375-1.5039-0.66406-2.9102-1.6992-1.3867-1.0352-2.7734-2.5195l3.9844-4.043q0.54687 1.3477 1.5039 2.5 0.95703 1.1328 2.0898 1.9531 1.1523 0.82032 2.3828 1.2891 1.2305 0.46875 2.3242 0.46875 1.2891 0 2.4219-0.17578 1.1328-0.19532 1.9727-0.625 0.83984-0.42969 1.3086-1.1328 0.48828-0.72265 0.48828-1.7969 0-0.82031-0.37109-1.4062-0.37109-0.58594-0.97656-0.9961-0.58594-0.42968-1.3477-0.72265-0.76172-0.29297-1.5625-0.48828-0.78125-0.21485-1.543-0.3711-0.76172-0.17578-1.3476-0.35156-1.1524-0.33203-2.4024-0.70312-1.25-0.39063-2.4609-0.87891t-2.3047-1.1133q-1.0742-0.64453-1.8945-1.5039-0.82032-0.8789-1.3086-2.0117-0.48828-1.1523-0.48828-2.6367 0-1.7773 0.42969-3.1445 0.44922-1.3867 1.25-2.4023t1.8945-1.6992q1.0938-0.70312 2.4023-1.1133 1.3086-0.42969 2.7734-0.60547 1.4844-0.19531 3.0273-0.19531 2.1094 0 3.8281 0.39062 1.7383 0.39063 3.2031 1.1133 1.4648 0.72266 2.6758 1.7383 1.2305 0.99609 2.3047 2.2266l-3.9844 4.043q-0.46875-1.4062-1.3086-2.5391-0.82031-1.1328-1.8359-1.9336-1.0156-0.82031-2.1289-1.25-1.1133-0.44922-2.1484-0.44922-1.3476 0-2.4805 0.19531-1.1328 0.17579-1.9531 0.60547-0.80078 0.41016-1.25 1.1328-0.44922 0.70312-0.44922 1.7578 0 0.83984 0.33203 1.4258 0.33203 0.58594 0.87891 0.99609 0.5664 0.41016 1.2695 0.6836 0.70312 0.2539 1.4453 0.44922 0.76172 0.19531 1.4844 0.35156 0.74218 0.13672 1.3476 0.3125 1.1719 0.33203 2.4609 0.70312 1.2891 0.3711 2.5391 0.87891 1.25 0.48828 2.3828 1.1328 1.1328 0.64453 1.9922 1.543 0.85938 0.87891 1.3672 2.0508 0.50781 1.1524 0.50781 2.6562z"/>
   <path id="path4199" d="m197.85 204.6q0 3.3984-1.1719 6.1328-1.1719 2.7148-3.2422 4.6094-2.0703 1.8945-4.9023 2.9102-2.832 1.0156-6.1328 1.0156t-6.1328-1.0156-4.9023-2.9102q-2.0703-1.8945-3.2422-4.6094-1.1719-2.7344-1.1719-6.1328 0-3.457 1.1524-6.1719 1.1719-2.7344 3.2226-4.6094 2.0703-1.8945 4.9024-2.8906 2.832-1.0156 6.1719-1.0156 3.3398 0 6.1719 1.0156 2.832 0.9961 4.8828 2.8906 2.0703 1.875 3.2227 4.6094 1.1719 2.7148 1.1719 6.1719zm-7.8906 0q0-1.2891-0.11719-2.6367-0.11719-1.3477-0.42969-2.6172t-0.85937-2.3828q-0.52735-1.1133-1.3672-1.9336-0.83984-0.83985-2.0312-1.3086-1.1719-0.48828-2.7539-0.48828-1.6016 0-2.793 0.48828-1.1914 0.46875-2.0312 1.2891-0.83984 0.82031-1.3672 1.9336-0.52735 1.1133-0.83985 2.3828-0.29297 1.25-0.41015 2.6172-0.11719 1.3477-0.11719 2.6562 0 1.2891 0.11719 2.6367 0.11718 1.3476 0.42968 2.6172 0.3125 1.25 0.83985 2.3633 0.54687 1.1133 1.3867 1.9531 0.83984 0.82031 2.0117 1.3086 1.1914 0.48828 2.7734 0.48828 1.543 0 2.6953-0.48828 1.1523-0.50782 1.9922-1.3477 0.83985-0.85938 1.3867-1.9727 0.56641-1.1328 0.87891-2.3828 0.33203-1.2695 0.46875-2.5977 0.13672-1.3281 0.13672-2.5781z"/>
   <path id="path4201" d="m206.31 218.7h-3.5938v-28.125h5.0391l17.09 19.316v-19.316h3.5742v28.125h-5.0391l-17.07-19.297v19.297z"/>
  </g>
  <flowRoot id="flowRoot4155" font-size="40px" xml:space="preserve" style="word-spacing:0px;letter-spacing:0px" line-height="125%" font-family="sans-serif" fill="#000000"><flowRegion id="flowRegion4157"><rect id="rect4159" y="333.36" width="336" x="210" height="229"/></flowRegion><flowPara id="flowPara4161"/></flowRoot>
 </g>
</svg>
